<?xml version="1.0" standalone="no"?>
<!DOCTYPE svg PUBLIC "-//W3C//DTD SVG 20010904//EN"
 "http://www.w3.org/TR/2001/REC-SVG-20010904/DTD/svg10.dtd">
<svg version="1.0" xmlns="http://www.w3.org/2000/svg"
 width="250.000000pt" height="210.000000pt" viewBox="0 0 250.000000 210.000000"
 preserveAspectRatio="xMidYMid meet">

<g transform="translate(0.000000,210.000000) scale(0.100000,-0.100000)"
fill="#000000" stroke="none">
<path d="M1133 2090 c-71 -13 -174 -53 -243 -95 -66 -40 -157 -126 -196 -185
-24 -36 -25 -42 -13 -71 18 -46 143 -168 214 -211 33 -20 96 -49 140 -65 72
-25 93 -28 215 -28 122 0 143 3 215 28 44 16 107 45 140 64 63 38 190 160 214
207 13 24 13 31 -4 62 -30 56 -139 160 -215 205 -133 79 -322 115 -467 89z
m282 -36 c110 -28 203 -81 291 -169 114 -112 113 -111 60 -182 -86 -114 -237
-207 -386 -239 -88 -19 -225 -14 -310 12 -124 37 -258 126 -330 219 -53 68
-50 83 30 169 168 179 406 249 645 190z"/>
<path d="M1117 2024 c-134 -29 -270 -109 -346 -205 l-41 -51 18 -30 c25 -43
122 -131 184 -166 86 -49 172 -73 283 -79 124 -6 218 12 321 63 77 38 186 130
216 182 l18 30 -41 51 c-23 28 -69 72 -104 96 -152 109 -331 147 -508 109z
m36 -46 c-42 -45 -60 -85 -72 -157 -17 -105 14 -220 76 -277 l26 -24 -25 0
c-40 0 -129 30 -203 68 -69 36 -195 149 -195 174 0 26 145 154 210 186 64 31
156 60 194 61 17 1 16 -3 -11 -31z m88 -34 c-14 -72 -7 -113 32 -187 35 -69
44 -128 25 -181 -13 -38 -41 -67 -53 -54 -4 3 1 28 10 54 20 60 14 96 -28 177
-28 53 -32 70 -32 140 0 71 2 81 24 98 13 11 26 18 28 15 2 -2 0 -30 -6 -62z
m216 35 c34 -11 88 -37 120 -58 55 -36 163 -141 163 -158 0 -20 -87 -106 -148
-147 -69 -46 -199 -96 -248 -96 l-27 0 26 24 c62 58 95 177 76 281 -13 71 -31
108 -73 154 l-31 33 40 -6 c22 -4 68 -16 102 -27z"/>
<path d="M0 1110 l0 -59 98 -3 97 -3 3 -207 2 -208 90 0 90 0 0 210 0 210 95
0 95 0 0 60 0 60 -285 0 -285 0 0 -60z"/>
<path d="M688 900 l-116 -270 94 0 95 0 19 45 19 45 115 0 114 0 18 -45 17
-45 93 0 c52 0 94 3 94 8 0 4 -51 124 -113 267 l-113 260 -109 3 -110 3 -117
-271z m229 -68 c-38 -2 -71 -1 -73 1 -3 2 12 48 33 102 l37 97 36 -98 36 -99
-69 -3z"/>
<path d="M1350 900 l0 -270 90 0 90 0 0 105 0 105 155 0 155 0 0 55 0 55 -155
0 -155 0 0 50 0 50 165 0 165 0 0 60 0 60 -255 0 -255 0 0 -270z"/>
<path d="M1930 1110 l0 -60 95 0 95 0 0 -210 0 -210 90 0 90 0 2 208 3 207 98
3 97 3 0 59 0 60 -285 0 -285 0 0 -60z"/>
<path d="M484 267 c-2 -7 -3 -69 -2 -138 l3 -124 53 -3 c49 -3 52 -2 52 20 0
21 -4 24 -35 20 l-35 -4 0 106 c0 104 0 106 23 106 13 0 28 -5 35 -12 9 -9 12
-6 12 15 0 26 -2 27 -50 27 -32 0 -52 -5 -56 -13z"/>
<path d="M660 139 l0 -140 48 3 47 3 3 138 3 137 -51 0 -50 0 0 -141z m70 6
c0 -98 -1 -105 -20 -105 -19 0 -20 7 -20 105 0 98 1 105 20 105 19 0 20 -7 20
-105z"/>
<path d="M848 154 c2 -86 -1 -130 -9 -140 -10 -12 -4 -14 32 -14 33 0 40 3 31
12 -7 7 -12 36 -12 65 0 46 3 53 20 53 13 0 20 7 20 20 0 13 -7 20 -20 20 -17
0 -20 7 -20 40 0 35 3 40 23 40 13 0 28 -5 35 -12 9 -9 12 -6 12 15 0 26 -2
27 -57 27 l-58 0 3 -126z"/>
<path d="M1028 273 c17 -7 17 -244 0 -261 -9 -9 -2 -12 33 -11 24 0 38 3 32 6
-9 3 -13 26 -13 64 0 52 2 59 20 59 13 0 20 7 20 20 0 13 -7 20 -20 20 -17 0
-20 7 -20 40 0 35 3 40 23 40 13 0 28 -5 35 -12 9 -9 12 -6 12 15 0 27 -1 27
-67 26 -38 0 -62 -3 -55 -6z"/>
<path d="M1218 273 c17 -7 17 -244 0 -261 -9 -9 3 -12 55 -12 63 0 67 1 67 23
0 20 -4 23 -35 19 l-35 -4 0 46 c0 39 3 46 20 46 13 0 20 7 20 20 0 13 -7 20
-20 20 -17 0 -20 7 -20 40 0 38 2 40 29 40 16 0 32 -6 34 -12 3 -7 6 -1 6 15
1 27 1 27 -66 26 -38 0 -62 -3 -55 -6z"/>
<path d="M1418 268 c8 -8 12 -51 12 -128 0 -77 -4 -120 -12 -128 -9 -9 3 -12
55 -12 63 0 67 1 67 23 0 20 -4 22 -40 19 l-40 -4 0 45 c0 40 3 46 23 49 12 2
22 10 22 18 0 8 -10 16 -22 18 -19 3 -23 10 -23 43 0 36 2 39 28 39 15 0 33
-5 40 -12 9 -9 12 -6 12 15 0 27 -1 27 -67 27 -52 0 -64 -3 -55 -12z"/>
<path d="M1712 143 l3 -138 53 -3 c49 -3 52 -2 52 20 0 21 -4 24 -35 20 l-35
-4 0 106 c0 104 0 106 23 106 13 0 28 -5 35 -12 9 -9 12 -6 12 15 0 26 -2 27
-55 27 l-56 0 3 -137z"/>
<path d="M1884 267 c-2 -7 -3 -69 -2 -138 l3 -124 50 0 50 0 3 138 3 137 -51
0 c-32 0 -52 -5 -56 -13z m66 -122 c0 -87 -3 -105 -15 -105 -12 0 -15 18 -15
105 0 87 3 105 15 105 12 0 15 -18 15 -105z"/>
<path d="M2065 30 c-8 -14 3 -30 21 -30 8 0 14 9 14 20 0 21 -24 28 -35 10z"/>
</g>
</svg>
